# xmcd
#
# Track frame offsets:
#	150
#	17718
#	35004
#	56789
#	78004
#	93871
#	112264
#	122031
#	137951
#
# Disc length: 2070 seconds
#
# Revision: 0
# Processed by: cddbd v1.5.2PL0 Copyright (c) Steve Scherf et al.
# Submitted via: dBpowerAMP V4.0
#
DISCID=77081409
DTITLE=John Waite - The Hard Way
DYEAR=2004
DGENRE=Blues
TTITLE0=The Hard Way
TTITLE1=Keys to Your Heat
TTITLE2=New York City Girl
TTITLE3=Always Be Your Man
TTITLE4=Godhead
TTITLE5=Masterpiece of Loneliness
TTITLE6=Son of Godhead
TTITLE7=Girl from the North Country
TTITLE8=Missing You
EXTD=2004 No Brakes Records
EXTT0=
EXTT1=
EXTT2=
EXTT3=
EXTT4=
EXTT5=
EXTT6=
EXTT7=
EXTT8=
PLAYORDER=
